<svg width="1538" height="485" viewBox="0 0 1538 485" fill="none" xmlns="http://www.w3.org/2000/svg">
<rect x="1015" y="42" width="455" height="139" rx="69.5" fill="#46AB0B"/>
<path d="M203.392 202.661V113.012L113.743 176.327L101.976 188.653L95.2525 198.179L94.1318 429.026L106.459 438.551L105.338 267.657L203.392 202.661Z" fill="url(#paint0_linear_857_2)"/>
<path d="M216.813 204.315L214.108 113.578L317.36 185.748L317.706 269.801L216.813 204.315Z" fill="url(#paint1_linear_857_2)"/>
<path d="M422.042 369.781L339.615 431.182L335.537 197.569L335.332 185.804L330.733 179.16L323.883 171.994L316.473 164.838L220.062 99.274L216.865 12.4688L409.167 145.848L416.046 154.694L417.313 163.078L422.042 369.781Z" fill="url(#paint2_linear_857_2)"/>
<path d="M76.202 419.498L0 367.95V161.756L3.36185 155.593L7.28401 149.99L21.2917 135.982L199.47 11.5938V95.0797L97.4937 167.92L76.202 193.694V419.498Z" fill="url(#paint3_linear_857_2)"/>
<path d="M232.569 484.26L224.502 484.401L222.129 348.457L314.082 284.458L317.605 424.649L232.569 484.26Z" fill="url(#paint4_linear_857_2)"/>
<path d="M525.026 194H496.901L548.108 48.5455H580.636L631.915 194H603.79L564.94 78.375H563.804L525.026 194ZM525.949 136.969H602.653V158.134H525.949V136.969ZM653.073 194V48.5455H746.255V70.6335H679.423V110.122H739.863V132.21H679.423V194H653.073ZM798.61 48.5455V194H772.261V48.5455H798.61ZM948.675 48.5455V194H925.237L856.7 94.9233H855.493V194H829.143V48.5455H852.723L921.189 147.693H922.467V48.5455H948.675ZM525.026 436H496.901L548.108 290.545H580.636L631.915 436H603.79L564.94 320.375H563.804L525.026 436ZM525.949 378.969H602.653V400.134H525.949V378.969ZM702.363 436H653.073V290.545H703.357C717.799 290.545 730.204 293.457 740.573 299.281C750.99 305.058 758.992 313.367 764.579 324.21C770.166 335.053 772.96 348.027 772.96 363.131C772.96 378.282 770.142 391.303 764.508 402.193C758.921 413.083 750.848 421.44 740.289 427.264C729.778 433.088 717.136 436 702.363 436ZM679.423 413.202H701.085C711.217 413.202 719.669 411.355 726.44 407.662C733.21 403.921 738.3 398.358 741.71 390.972C745.119 383.538 746.823 374.258 746.823 363.131C746.823 352.004 745.119 342.771 741.71 335.432C738.3 328.045 733.258 322.529 726.582 318.884C719.953 315.19 711.714 313.344 701.866 313.344H679.423V413.202ZM811.643 290.545L849.498 405.034H850.989L888.773 290.545H917.751L866.472 436H833.944L782.737 290.545H811.643ZM965.259 290.545V436H938.909V290.545H965.259ZM1074.84 330.531C1074.18 324.329 1071.38 319.499 1066.46 316.043C1061.58 312.586 1055.24 310.858 1047.43 310.858C1041.93 310.858 1037.22 311.687 1033.29 313.344C1029.36 315.001 1026.36 317.25 1024.27 320.091C1022.19 322.932 1021.12 326.175 1021.08 329.821C1021.08 332.851 1021.76 335.479 1023.14 337.705C1024.56 339.93 1026.47 341.824 1028.89 343.386C1031.3 344.902 1033.98 346.18 1036.91 347.222C1039.85 348.263 1042.81 349.139 1045.79 349.849L1059.43 353.259C1064.92 354.537 1070.2 356.265 1075.27 358.443C1080.38 360.621 1084.95 363.367 1088.97 366.682C1093.05 369.996 1096.27 373.997 1098.63 378.685C1101 383.372 1102.18 388.865 1102.18 395.162C1102.18 403.685 1100.01 411.189 1095.65 417.676C1091.29 424.116 1085 429.158 1076.76 432.804C1068.57 436.402 1058.65 438.202 1047 438.202C1035.68 438.202 1025.86 436.45 1017.52 432.946C1009.24 429.442 1002.75 424.329 998.065 417.605C993.424 410.882 990.915 402.69 990.536 393.031H1016.46C1016.84 398.098 1018.4 402.312 1021.15 405.673C1023.89 409.035 1027.47 411.545 1031.87 413.202C1036.32 414.859 1041.29 415.688 1046.79 415.688C1052.52 415.688 1057.53 414.835 1061.84 413.131C1066.2 411.379 1069.61 408.964 1072.07 405.886C1074.53 402.761 1075.79 399.116 1075.83 394.949C1075.79 391.161 1074.67 388.036 1072.5 385.574C1070.32 383.064 1067.26 380.981 1063.33 379.324C1059.45 377.619 1054.91 376.104 1049.7 374.778L1033.15 370.517C1021.17 367.439 1011.7 362.776 1004.74 356.526C997.828 350.228 994.371 341.871 994.371 331.455C994.371 322.884 996.692 315.38 1001.33 308.94C1006.02 302.501 1012.39 297.506 1020.44 293.955C1028.49 290.356 1037.6 288.557 1047.78 288.557C1058.1 288.557 1067.15 290.356 1074.91 293.955C1082.72 297.506 1088.86 302.454 1093.31 308.798C1097.76 315.096 1100.05 322.34 1100.2 330.531H1074.84ZM1257.65 363.273C1257.65 378.945 1254.71 392.368 1248.84 403.543C1243.02 414.67 1235.06 423.192 1224.98 429.111C1214.94 435.029 1203.55 437.989 1190.81 437.989C1178.08 437.989 1166.67 435.029 1156.58 429.111C1146.54 423.145 1138.59 414.598 1132.72 403.472C1126.89 392.297 1123.98 378.898 1123.98 363.273C1123.98 347.6 1126.89 334.201 1132.72 323.074C1138.59 311.9 1146.54 303.353 1156.58 297.435C1166.67 291.516 1178.08 288.557 1190.81 288.557C1203.55 288.557 1214.94 291.516 1224.98 297.435C1235.06 303.353 1243.02 311.9 1248.84 323.074C1254.71 334.201 1257.65 347.6 1257.65 363.273ZM1231.15 363.273C1231.15 352.241 1229.43 342.937 1225.97 335.361C1222.56 327.738 1217.83 321.985 1211.77 318.102C1205.71 314.172 1198.72 312.207 1190.81 312.207C1182.91 312.207 1175.92 314.172 1169.86 318.102C1163.8 321.985 1159.04 327.738 1155.59 335.361C1152.18 342.937 1150.47 352.241 1150.47 363.273C1150.47 374.305 1152.18 383.633 1155.59 391.256C1159.04 398.831 1163.8 404.584 1169.86 408.514C1175.92 412.397 1182.91 414.338 1190.81 414.338C1198.72 414.338 1205.71 412.397 1211.77 408.514C1217.83 404.584 1222.56 398.831 1225.97 391.256C1229.43 383.633 1231.15 374.305 1231.15 363.273ZM1284.56 436V290.545H1339.1C1350.28 290.545 1359.65 292.487 1367.23 296.369C1374.85 300.252 1380.6 305.697 1384.49 312.705C1388.42 319.665 1390.38 327.785 1390.38 337.065C1390.38 346.393 1388.39 354.49 1384.42 361.355C1380.49 368.173 1374.69 373.453 1367.01 377.193C1359.34 380.886 1349.92 382.733 1338.75 382.733H1299.9V360.858H1335.2C1341.73 360.858 1347.08 359.958 1351.25 358.159C1355.41 356.312 1358.49 353.637 1360.48 350.134C1362.52 346.582 1363.53 342.226 1363.53 337.065C1363.53 331.904 1362.52 327.501 1360.48 323.855C1358.44 320.162 1355.34 317.368 1351.18 315.474C1347.01 313.533 1341.64 312.562 1335.05 312.562H1310.91V436H1284.56ZM1359.7 370.091L1395.71 436H1366.3L1330.94 370.091H1359.7ZM1401.03 290.545H1430.79L1466.37 354.892H1467.79L1503.37 290.545H1533.13L1480.22 381.739V436H1453.94V381.739L1401.03 290.545Z" fill="#1353A2"/>
<path d="M1110.85 149H1097.35L1121.93 79.1818H1137.55L1162.16 149H1148.66L1130.01 93.5H1129.47L1110.85 149ZM1111.3 121.625H1148.11V131.784H1111.3V121.625ZM1188.65 149.92C1184.53 149.92 1180.85 148.864 1177.6 146.75C1174.35 144.636 1171.78 141.568 1169.9 137.545C1168.01 133.523 1167.07 128.636 1167.07 122.886C1167.07 117.068 1168.02 112.159 1169.93 108.159C1171.86 104.136 1174.47 101.102 1177.74 99.0568C1181.01 96.9886 1184.66 95.9545 1188.68 95.9545C1191.75 95.9545 1194.27 96.4773 1196.25 97.5227C1198.23 98.5455 1199.8 99.7841 1200.95 101.239C1202.11 102.67 1203.01 104.023 1203.65 105.295H1204.16V79.1818H1216.53V149H1204.4V140.75H1203.65C1203.01 142.023 1202.09 143.375 1200.89 144.807C1199.68 146.216 1198.09 147.42 1196.11 148.42C1194.14 149.42 1191.65 149.92 1188.65 149.92ZM1192.09 139.795C1194.7 139.795 1196.93 139.091 1198.77 137.682C1200.61 136.25 1202.01 134.261 1202.97 131.716C1203.92 129.17 1204.4 126.205 1204.4 122.818C1204.4 119.432 1203.92 116.489 1202.97 113.989C1202.03 111.489 1200.65 109.545 1198.81 108.159C1196.99 106.773 1194.75 106.08 1192.09 106.08C1189.34 106.08 1187.05 106.795 1185.2 108.227C1183.36 109.659 1181.98 111.636 1181.05 114.159C1180.11 116.682 1179.65 119.568 1179.65 122.818C1179.65 126.091 1180.11 129.011 1181.05 131.58C1182 134.125 1183.4 136.136 1185.24 137.614C1187.1 139.068 1189.39 139.795 1192.09 139.795ZM1229.68 149V96.6364H1241.48V105.534H1242.09C1243.18 102.534 1244.99 100.193 1247.51 98.5114C1250.04 96.8068 1253.05 95.9545 1256.55 95.9545C1260.09 95.9545 1263.08 96.8182 1265.51 98.5455C1267.97 100.25 1269.7 102.58 1270.7 105.534H1271.24C1272.4 102.625 1274.36 100.307 1277.11 98.5795C1279.88 96.8295 1283.16 95.9545 1286.96 95.9545C1291.78 95.9545 1295.71 97.4773 1298.75 100.523C1301.8 103.568 1303.32 108.011 1303.32 113.852V149H1290.95V115.761C1290.95 112.511 1290.08 110.136 1288.36 108.636C1286.63 107.114 1284.51 106.352 1282.01 106.352C1279.04 106.352 1276.71 107.284 1275.03 109.148C1273.37 110.989 1272.54 113.386 1272.54 116.341V149H1260.43V115.25C1260.43 112.545 1259.62 110.386 1257.98 108.773C1256.37 107.159 1254.25 106.352 1251.64 106.352C1249.87 106.352 1248.25 106.807 1246.8 107.716C1245.34 108.602 1244.18 109.864 1243.32 111.5C1242.46 113.114 1242.03 115 1242.03 117.159V149H1229.68ZM1315.84 149V96.6364H1328.18V149H1315.84ZM1322.05 89.2045C1320.09 89.2045 1318.41 88.5568 1317 87.2614C1315.59 85.9432 1314.89 84.3636 1314.89 82.5227C1314.89 80.6591 1315.59 79.0795 1317 77.7841C1318.41 76.4659 1320.09 75.8068 1322.05 75.8068C1324.02 75.8068 1325.7 76.4659 1327.09 77.7841C1328.5 79.0795 1329.2 80.6591 1329.2 82.5227C1329.2 84.3636 1328.5 85.9432 1327.09 87.2614C1325.7 88.5568 1324.02 89.2045 1322.05 89.2045ZM1353.21 118.318V149H1340.87V96.6364H1352.67V105.534H1353.28C1354.49 102.602 1356.41 100.273 1359.04 98.5455C1361.7 96.8182 1364.99 95.9545 1368.89 95.9545C1372.51 95.9545 1375.66 96.7273 1378.34 98.2727C1381.04 99.8182 1383.13 102.057 1384.61 104.989C1386.11 107.92 1386.85 111.477 1386.83 115.659V149H1374.49V117.568C1374.49 114.068 1373.58 111.33 1371.76 109.352C1369.96 107.375 1367.47 106.386 1364.29 106.386C1362.13 106.386 1360.21 106.864 1358.53 107.818C1356.87 108.75 1355.57 110.102 1354.61 111.875C1353.68 113.648 1353.21 115.795 1353.21 118.318Z" fill="white"/>
<defs>
<linearGradient id="paint0_linear_857_2" x1="148.762" y1="113.012" x2="148.762" y2="438.551" gradientUnits="userSpaceOnUse">
<stop stop-color="#57B409"/>
<stop offset="1" stop-color="#128F10"/>
</linearGradient>
<linearGradient id="paint1_linear_857_2" x1="265.089" y1="112.688" x2="267.846" y2="270.671" gradientUnits="userSpaceOnUse">
<stop stop-color="#2960B4"/>
<stop offset="1" stop-color="#2E81DD"/>
</linearGradient>
<linearGradient id="paint2_linear_857_2" x1="316.305" y1="10.733" x2="323.649" y2="431.461" gradientUnits="userSpaceOnUse">
<stop stop-color="#253885"/>
<stop offset="1" stop-color="#4B8DE8"/>
</linearGradient>
<linearGradient id="paint3_linear_857_2" x1="99.7349" y1="11.5937" x2="99.7349" y2="419.498" gradientUnits="userSpaceOnUse">
<stop stop-color="#008512"/>
<stop offset="0.5" stop-color="#57B308"/>
<stop offset="1" stop-color="#009F05"/>
</linearGradient>
<linearGradient id="paint4_linear_857_2" x1="268.099" y1="285.261" x2="271.56" y2="483.58" gradientUnits="userSpaceOnUse">
<stop stop-color="#25418F"/>
<stop offset="1" stop-color="#2D7DE8"/>
</linearGradient>
</defs>
</svg>
